<?xml version="1.0" encoding="utf-8"?>
<!-- Generator: Adobe Illustrator 27.7.0, SVG Export Plug-In . SVG Version: 6.00 Build 0)  -->
<svg version="1.1" id="レイヤー_1" xmlns="http://www.w3.org/2000/svg" xmlns:xlink="http://www.w3.org/1999/xlink" x="0px"
	 y="0px" viewBox="0 0 400 100" style="enable-background:new 0 0 400 100;" xml:space="preserve">
<style type="text/css">
	.st0{fill:#FFC144;}
	.st1{fill:#FFAA00;}
	.st2{fill:#FF8F45;}
	.st3{fill:#FFA245;}
	.st4{fill:#FF8C80;}
</style>
<path class="st0" d="M48.3,20c15.1,3.7,26.3,17.5,26.3,34c0,10-4.1,19.1-10.8,25.4c0.6-1.8-2.1-2.2-5.6-0.1
	C40.9,89.6,30.3,84.9,24,77.4c0,0,2.8-0.8,5.8-2c8.7-3.5,19.8-18.6,9.1-30.3c-7.7-8.5,2.4-17.6,7.8-18.4c2-0.3,3.9-3.3,3-4.4
	C49.1,21.6,48.7,20.8,48.3,20z"/>
<g id="W_Mark_2_">
	<path class="st1" d="M40.3,24.5c4,0,7.8,0.8,11.5,2.3c1.7,0.7,3.4,1.7,5,2.7c1.6,1.1,3,2.3,4.4,3.6c1.3,1.3,2.5,2.8,3.6,4.4
		c1.1,1.6,2,3.3,2.7,5C69,46.1,69.7,50,69.7,54s-0.8,7.8-2.3,11.5c-0.7,1.7-1.7,3.4-2.7,5c-1.1,1.6-2.3,3-3.6,4.4
		c-1.3,1.3-2.8,2.5-4.4,3.6c-1.6,1.1-3.3,2-5,2.7c-3.6,1.5-7.5,2.3-11.5,2.3s-7.8-0.8-11.5-2.3c-1.7-0.7-3.4-1.7-5-2.7
		c-1.6-1.1-3-2.3-4.4-3.6c-1.3-1.3-2.5-2.8-3.6-4.4c-1.1-1.6-2-3.3-2.7-5c-1.5-3.6-2.3-7.5-2.3-11.5s0.8-7.8,2.3-11.5
		c0.7-1.7,1.7-3.4,2.7-5c1.1-1.6,2.3-3,3.6-4.4c1.3-1.3,2.8-2.5,4.4-3.6c1.6-1.1,3.3-2,5-2.7C32.5,25.3,36.3,24.5,40.3,24.5
		 M40.3,22.7C23,22.7,8.9,36.7,8.9,54s14,31.3,31.3,31.3s31.3-14,31.3-31.3S57.6,22.7,40.3,22.7L40.3,22.7z"/>
	<path class="st1" d="M14.2,54c0,10.3,6,19.3,14.7,23.5L16.4,43.4C15,46.6,14.2,50.2,14.2,54z M57.9,52.7c0-3.2-1.2-5.5-2.1-7.2
		c-1.3-2.1-2.6-4-2.6-6.1c0-2.4,1.8-4.6,4.4-4.6c0.1,0,0.2,0,0.3,0c-4.6-4.3-10.8-6.9-17.6-6.9c-9.1,0-17.2,4.7-21.8,11.8
		c0.6,0,1.2,0,1.7,0c2.7,0,7-0.3,7-0.3c1.4-0.1,1.6,2,0.2,2.1c0,0-1.4,0.2-3,0.2l9.5,28.3l5.7-17.1l-4.1-11.2
		c-1.4-0.1-2.7-0.2-2.7-0.2c-1.4-0.1-1.3-2.2,0.2-2.1c0,0,4.3,0.3,6.9,0.3c2.7,0,7-0.3,7-0.3c1.4-0.1,1.6,2,0.2,2.1
		c0,0-1.4,0.2-3,0.2l9.4,28.1l2.7-8.5C57.2,57.6,57.9,54.9,57.9,52.7z M40.8,56.3L32.9,79c2.3,0.7,4.8,1.1,7.4,1.1
		c3,0,6-0.5,8.7-1.5c-0.1-0.1-0.1-0.2-0.2-0.4L40.8,56.3z M63.2,41.5c0.1,0.8,0.2,1.7,0.2,2.7c0,2.6-0.5,5.6-2,9.4l-8,23.1
		c7.8-4.5,13-12.9,13-22.6C66.4,49.5,65.3,45.2,63.2,41.5z"/>
</g>
<path d="M58.2,79.4C40.9,89.6,30.3,84.9,24,77.4c0,0,2.8-0.8,5.8-2c8.7-3.5,19.8-18.6,9.1-30.3c-7.7-8.5,2.4-17.6,7.8-18.4
	c2-0.3,3.9-3.3,3-4.4c-0.6-0.8-1-1.6-1.4-2.3c-0.3-0.7-0.6-1.4-0.9-2.1c-0.6-1.4-2.1-2.8-5.3-3.4c-0.6-0.5,0.5-5.6-1.3-5.6
	c-1.1,0-4.2,3.9-5.4,6.2c-1.2,2.3-4.2,4.9-7.4,6.3c-0.3,0.1-0.7,0.3-1,0.4C14.7,27.1,6,39.5,6,54c0,19.3,15.4,34.9,34.3,34.9
	c9.1,0,17.4-3.6,23.5-9.5C64.5,77.6,61.8,77.2,58.2,79.4z"/>
<g>
	<g id="XMLID_1_">
		<g>
			<path class="st0" d="M301.1,28.5c14.4,0,26.1,11.7,26.1,26.1s-11.7,26.1-26.1,26.1S275,69,275,54.6S286.7,28.5,301.1,28.5z
				 M307.5,54.6c0-3.5-2.9-6.4-6.4-6.4s-6.4,2.9-6.4,6.4s2.9,6.4,6.4,6.4S307.5,58.1,307.5,54.6z"/>
			<path class="st2" d="M275.2,48.2c0,11.1-9,20-20,20V54.3c3.3,0,6.1-2.7,6.1-6.1c0-3.4-2.7-6.1-6.1-6.1V28.2
				C266.3,28.2,275.2,37.1,275.2,48.2z"/>
			<polygon class="st2" points="255.2,68.1 255.2,81.1 234.2,81.1 234.2,28.2 255.2,28.2 255.2,42.1 255.2,54.3 			"/>
			<polygon class="st0" points="230.5,28.1 230.5,54.6 222.3,54.6 222.3,52.5 197.2,52.5 197.2,54.6 188.9,54.6 188.9,28.1 			"/>
			<rect x="197.2" y="54.6" class="st0" width="25" height="26.1"/>
			<rect x="197.2" y="52.5" class="st0" width="25" height="2.1"/>
			<path class="st3" d="M188.9,54.6v26.5H169v-1.1C180.5,77.1,188.9,66.8,188.9,54.6z"/>
			<path class="st3" d="M155.8,68v11.7c-11-3.1-19.1-13.2-19.1-25.2c0-14.4,11.7-26.1,26.1-26.1c14.4,0,26.1,11.7,26.1,26.1
				c0,12.3-8.5,22.6-19.9,25.4V68V54.6c0-3.7-3-6.6-6.6-6.6c-3.7,0-6.6,3-6.6,6.6V68z"/>
			<rect x="155.8" y="54.6" class="st3" width="13.2" height="13.4"/>
			<path class="st3" d="M136.7,54.6c0,12,8.1,22.1,19.1,25.2v1.3h-19.1V54.6z"/>
			<path class="st2" d="M109.4,61.2h25.6c-2.9,11.2-13.1,19.5-25.2,19.5c-14.4,0-26.1-11.7-26.1-26.1s11.7-26.1,26.1-26.1
				c12.1,0,22.3,8.3,25.2,19.5h-25.6c-3.7,0-6.6,3-6.6,6.6C102.8,58.2,105.8,61.2,109.4,61.2z"/>
		</g>
	</g>
</g>
<path class="st4" d="M358,35.5c0.1-2.5,0.1-5,0.8-7.4c0.2-0.9,0.6-1.9,1.4-2.3c0.7-0.4,1.4-0.4,2.2-0.3c1.8,0.2,3.7,0.4,5.3,1.4
	c2.2,1.3,3.9,3.8,4.6,6.5c0.7,2.7,0.7,5.7,0.2,8.5c-0.3,1.8-0.8,3.6-1.8,5c-1,1.4-2.5,2.5-4.1,2.3c-1.4-0.2-2.7-1.2-3.8-2.3
	c-1.9-1.9-3.8-4.1-4.4-6.9C357.9,38.5,357.9,37,358,35.5z M347.4,30.6c2.8,1,4.6,4,5.4,6.9c0.9,3.3,0.9,6.9-0.3,10.1
	c-0.4,1.2-1.1,2.3-2.1,3C338.7,59,331.7,25,347.4,30.6z M342.6,69.1c-0.3,0.7-0.6,1.5-1.2,1.9c-0.9,0.5-2,0.2-2.9-0.2
	c-3.2-1.5-5.8-4.4-7.1-7.9c-1.3-3.5-1.2-7.6,0.2-11c0.4-1.1,1.1-2.2,2.1-2.6c1.5-0.6,3.1,0.5,4.2,1.8c2.2,2.3,3.9,5.1,4.8,8.3
	C343.7,62.6,343.7,66.1,342.6,69.1z M379.2,74.7c-3.7,4.9-9.5,8.3-15.7,9c-6.2,0.7-12.5-1.2-17.3-5.2c-0.7-0.6-1.4-1.3-1.7-2.1
	c-0.4-1.2,0.1-2.4,0.6-3.5c1.9-4,4.6-7.6,6.5-11.6c1.9-3.9,3.1-7.4,7.2-9.3c0.5-0.2,1-0.4,1.5-0.4c0.5,0,0.9,0.3,1.4,0.6
	c4.6,2.9,8.1,6.7,13.2,8.9c2.1,0.9,4.4,1.7,5.7,3.5C382.8,67.6,381.4,71.8,379.2,74.7z M384.5,57.8c-0.8,0.6-1.8,1-2.7,0.9
	c-2.1,0-3.7-1.8-4.7-3.5c-3.2-5.6-2.8-13.1,1-18.3c0.4-0.5,0.9-1.1,1.5-1.4c1.5-0.7,3.2,0.4,4.4,1.6c4.1,4.3,5.5,11,3.5,16.6
	C386.7,55.2,385.8,56.8,384.5,57.8z"/>
</svg>
